HIERARCHY
ROOT Hips
{
	OFFSET	0.00	0.00	0.00
	CHANNELS 6 Xposition Yposition Zposition Zrotation Xrotation Yrotation
	JOINT Spine
	{
		OFFSET	 0.00	0.01	 0.00
		CHANNELS 3 Zrotation Xrotation Yrotation
		JOINT Spine1
		{
			OFFSET	 0.00	 2.45913012437421	 0.00
			CHANNELS 3 Zrotation Xrotation Yrotation
            JOINT Neck
            {
                OFFSET	 0.00	 2.48462964506057	 0.00
                CHANNELS 3 Zrotation Xrotation Yrotation
                JOINT Head
                {
                    OFFSET	 0.00	 0.927524780924562	 0.00
                    CHANNELS 3 Zrotation Xrotation Yrotation
                    End Site 
                    {
                        OFFSET	 0.00	 1.14999962169752	 0.00
                    }
                }
            }
			JOINT LeftShoulder
			{
				OFFSET	 0.00	 2.48462964506057	 0.00
				CHANNELS 3 Zrotation Xrotation Yrotation
				JOINT LeftUpArm
				{
					OFFSET	 0.00	 1.24881979654096	 0.00
					CHANNELS 3 Zrotation Xrotation Yrotation
					JOINT LeftForeArm
					{
						OFFSET	 0.00	2.59758046908119	 0.00
						CHANNELS 3 Zrotation Xrotation Yrotation
						JOINT LeftHand
						{
							OFFSET	 0.00	2.45542024364365	 0.00
							CHANNELS 3 Zrotation Xrotation Yrotation
							JOINT LeftHandThumb 
							{
								OFFSET	 0.00	0.00	 0.00
								CHANNELS 3 Zrotation Xrotation Yrotation
								End Site
								{
									OFFSET	 0.00	0.00	1.00000003353624
								}
							}
							JOINT L_Wrist_End 
							{
								OFFSET	 0.00	0.99999967115358	 0.00
								CHANNELS 3 Zrotation Xrotation Yrotation
								End Site 
								{
									OFFSET	 0.00	 0.00	 0.00
								}
							}
						}
					}
				}
			}
			JOINT RightShoulder
			{
				OFFSET	 0.00	 2.48462964506057	 0.00
				CHANNELS 3 Zrotation Xrotation Yrotation
				JOINT RightUpArm
				{
					OFFSET	 0.00	 1.24881979654096	 0.00
					CHANNELS 3 Zrotation Xrotation Yrotation
					JOINT RightForeArm
					{
						OFFSET	 0.00	2.59758046908119	 0.00
						CHANNELS 3 Zrotation Xrotation Yrotation
						JOINT RightHand
						{
							OFFSET	 0.00	2.45542024364365	 0.00
							CHANNELS 3 Zrotation Xrotation Yrotation
							JOINT RightHandThumb 
							{
								OFFSET	 0.00	0.00	 0.00
								CHANNELS 3 Zrotation Xrotation Yrotation
								End Site
								{
									OFFSET	 0.00	0.00	1.00000003353624
								}
							}
							JOINT R_Wrist_End 
							{
								OFFSET	 0.00	0.99999967115358	 0.00
								CHANNELS 3 Zrotation Xrotation Yrotation
								End Site 
								{
									OFFSET	 0.00	 0.00	 0.00
								}
							}
						}
					}
				}
			}
		}
	}
	JOINT LeftUpLeg
	{
		OFFSET	 1.2719394002717	 0.00	 0.00
		CHANNELS 3 Zrotation Xrotation Yrotation
		JOINT LeftLowLeg
		{
			OFFSET	 0.00	-4.3429100912261	 0.00
			CHANNELS 3 Zrotation Xrotation Yrotation
			JOINT LeftFoot
			{
				OFFSET	 0.00	-4.48767017425826	 0.00
				CHANNELS 3 Zrotation Xrotation Yrotation
				JOINT LeftToeBase
                {
                    OFFSET	 0.00	0.00	 1.51507020887566
                    CHANNELS 3 Zrotation Xrotation Yrotation
                    End Site 
                    {
                        OFFSET	 0.00	0.00	 0.75000010571191
                    }
                }
			}
		}
	}
	JOINT RightUpLeg
	{
		OFFSET	 -1.2719393604653	 0.00	 0.00
		CHANNELS 3 Zrotation Xrotation Yrotation
		JOINT RightLowLeg
		{
			OFFSET	 0.00	-4.3429100912261	 0.00
			CHANNELS 3 Zrotation Xrotation Yrotation
			JOINT RightFoot
			{
				OFFSET	 0.00	-4.48767017425826	 0.00
				CHANNELS 3 Zrotation Xrotation Yrotation
				JOINT RightToeBase
                {
                    OFFSET	 0.00	0.00	 1.51507020887566
                    CHANNELS 3 Zrotation Xrotation Yrotation
                    End Site 
                    {
                        OFFSET	 0.00	0.00	 0.749999965609858
                    }
                }   
			}
		}
	}
}
MOTION 
Frames:	11 
Frame Time: 0.02 
  2.9549099731445314 9.86802978515625 1.0698000335693358 -3.03761 31.7382 -357.03 11.2623 34.9682 -6.5228 -11.5779 28.1742 0.357697 7.16422 45.0032 -28.9628 51.8622 -45.8491 62.8532 -101.3866 -3.97736 2.60302 -23.6891 8.58634 22.2731 0.0 53.2659 0.0 34.0606 -2.38327 18.9172 0.0 0.0 0.0 0.0 0.0 0.0 109.3916 -2.27051 -3.9437 35.4368 4.58769 -37.4205 0.0 58.9105 0.0 -27.1367 -14.6059 -1.40486 0.0 0.0 0.0 0.0 0.0 0.0 -8.28211 -87.1682 -9.3997 0.0 127.501 0.0 -6.28027 22.871521 -4.33799 0.0 -35.5955 0.0 8.23688 -64.9922 -0.36504 0.0 70.8195 0.0 22.3368 19.78118 -3.41586 0.0 -30.6933 0.0 
  2.953529968261719 9.863519897460938 1.0729599761962891 -3.00858 32.0371 -357.153 11.1548 35.0096 -6.54033 -11.4055 28.096 0.214762 6.57049 45.4005 -28.4067 51.9114 -46.31 62.9013 -101.537796 -4.09274 2.76479 -23.3409 8.39809 23.4756 0.0 54.7469 0.0 33.5469 -2.80037 18.0445 0.0 0.0 0.0 0.0 0.0 0.0 109.2784 -2.16145 -3.97715 35.4547 4.81046 -38.1905 0.0 59.3461 0.0 -27.2487 -14.2603 -1.93962 0.0 0.0 0.0 0.0 0.0 0.0 -9.323 -87.3696 -10.4783 0.0 127.533 0.0 -6.32466 22.77758 -4.33148 0.0 -35.3294 0.0 8.09831 -66.1741 -1.15307 0.0 72.7076 0.0 23.4572 20.146389 -3.50228 0.0 -30.813099 0.0 
  2.9565899658203123 9.859000244140624 1.0781300354003907 -3.0621 32.1908 -357.125 11.477 35.1542 -6.76801 -11.5236 27.9986 0.234514 6.49122 45.8999 -28.4782 52.263 -46.8265 63.3131 -101.358 -3.98976 3.0133 -23.4938 8.38513 24.2993 0.0 55.6795 0.0 33.1686 -2.92657 18.2771 0.0 0.0 0.0 0.0 0.0 0.0 109.3613 -2.21002 -3.96044 35.3934 5.03242 -38.913 0.0 59.5632 0.0 -27.7426 -14.2092 -2.14078 0.0 0.0 0.0 0.0 0.0 0.0 -13.2316 -87.4328 -14.4993 0.0 127.604 0.0 -6.77118 22.614689 -4.31006 0.0 -35.162903 0.0 7.54384 -67.2705 -2.29242 0.0 74.8569 0.0 24.0478 20.50637 -3.09603 0.0 -30.6109 0.0 
  2.94885009765625 9.856270141601563 1.0768599700927735 -3.03112 32.3786 -357.358 11.1045 35.3914 -6.53564 -11.0807 27.8535 0.130174 5.67568 46.3098 -27.639 52.5006 -47.3238 63.1674 -101.1633 -3.80394 3.1351 -23.9306 8.10079 24.9819 0.0 56.4911 0.0 33.0083 -2.86784 18.212 0.0 0.0 0.0 0.0 0.0 0.0 109.165 -2.09858 -4.12712 35.4253 5.29396 -39.4014 0.0 59.5991 0.0 -28.1932 -14.4383 -1.87865 0.0 0.0 0.0 0.0 0.0 0.0 -9.22874 -87.6253 -10.5793 0.0 127.692 0.0 -7.14876 22.43277 -4.35753 0.0 -34.8199 0.0 7.74807 -68.5047 -2.57153 0.0 77.0969 0.0 24.8674 20.88158 -3.08873 0.0 -30.5056 0.0 
  2.9466400146484375 9.85344970703125 1.0756999969482421 -3.02994 32.6516 -357.5 10.8878 35.4916 -6.44754 -10.6943 27.8207 0.0290078 4.93252 46.5935 -26.8851 52.962 -47.8502 63.2389 -101.114 -3.83665 3.1735 -24.1761 8.17524 25.8281 0.0 57.0738 0.0 32.9115 -2.88439 18.0941 0.0 0.0 0.0 0.0 0.0 0.0 108.9716 -2.02021 -4.27149 35.4318 5.68117 -39.8333 0.0 59.3494 0.0 -28.3182 -14.4951 -1.8344 0.0 0.0 0.0 0.0 0.0 0.0 -8.76237 -87.8965 -10.1809 0.0 127.763 0.0 -7.44955 22.4422 -4.44269 0.0 -34.9272 0.0 7.53762 -69.9201 -3.44834 0.0 79.5037 0.0 25.8348 21.13609 -3.27254 0.0 -30.5099 0.0 
  2.9462600708007813 9.850780029296875 1.0756300354003907 -2.94727 32.8306 -357.648 10.6884 35.5731 -6.42971 -10.3966 28.015 -0.120584 4.634 46.5 -26.7328 52.9069 -48.1652 63.3002 -101.1843 -3.95374 3.49671 -24.1051 8.55391 26.3559 0.0 57.5488 0.0 32.7935 -3.09046 17.6057 0.0 0.0 0.0 0.0 0.0 0.0 108.778 -1.78954 -4.22386 35.4089 5.84355 -40.3027 0.0 59.2469 0.0 -28.7099 -14.5132 -1.52091 0.0 0.0 0.0 0.0 0.0 0.0 -9.6854 -88.047 -11.055 0.0 127.795 0.0 -7.06155 22.56864 -4.46718 0.0 -35.287598 0.0 7.15503 -71.2975 -4.06123 0.0 82.105 0.0 25.5543 21.51437 -2.57086 0.0 -30.648201 0.0 
  2.9467401123046875 9.851300048828126 1.07427001953125 -2.81419 32.8412 -357.852 10.6558 35.9371 -6.41715 -10.4152 27.9453 -0.174205 4.12025 46.6275 -26.0566 53.4053 -48.3187 63.129 -101.0461 -3.88839 3.64125 -23.9938 8.77274 27.44 0.0 57.95 0.0 32.7457 -3.45946 16.2376 0.0 0.0 0.0 0.0 0.0 0.0 108.7687 -1.68964 -4.3978 35.2913 5.92794 -40.4976 0.0 59.4534 0.0 -29.2441 -15.0656 -0.602734 0.0 0.0 0.0 0.0 0.0 0.0 -9.55918 -88.0114 -10.8604 0.0 127.76 0.0 -7.14098 22.58043 -4.35926 0.0 -35.2434 0.0 6.58108 -72.5944 -5.17386 0.0 84.7138 0.0 27.1082 21.63686 -2.68076 0.0 -30.744701 0.0 
  2.9652801513671876 9.839390258789063 1.0586199951171875 -1.6636 34.7724 -358.494 9.81536 34.473 -6.07898 -10.2321 27.5728 -0.611931 3.67651 46.4141 -25.639 52.4889 -48.1929 62.1933 -100.5863 -3.85789 4.09398 -24.6045 9.02612 28.5497 0.0 58.0702 0.0 33.0422 -3.89276 14.382 0.0 0.0 0.0 0.0 0.0 0.0 108.012 -1.8952 -4.74147 35.6918 6.06652 -40.6849 0.0 59.7177 0.0 -29.6 -15.1487 -0.386499 0.0 0.0 0.0 0.0 0.0 0.0 -79.7788 -89.2783 -79.917 0.0 127.608 0.0 -7.18013 22.62945 -4.11307 0.0 -35.516502 0.0 4.62214 -76.3542 -6.46013 0.0 88.0696 0.0 26.7403 21.82532 -2.04586 0.0 -30.8181 0.0 
  2.967330017089844 9.839390258789063 1.0615299987792968 -1.39188 34.5355 -358.586 9.77636 35.0222 -6.17251 -10.0438 27.6043 -0.785343 3.42116 46.7127 -25.354 53.064 -48.4994 62.4832 -100.3828 -3.49121 4.32035 -24.8069 9.14397 29.6485 0.0 58.0617 0.0 33.0725 -4.16507 13.6905 0.0 0.0 0.0 0.0 0.0 0.0 107.9195 -1.97808 -4.69922 35.5655 6.07005 -40.9017 0.0 59.8255 0.0 -29.9787 -15.0578 -0.150249 0.0 0.0 0.0 0.0 0.0 0.0 -64.2351 -88.9694 -64.1505 0.0 127.511 0.0 -6.88355 22.75939 -4.04835 0.0 -35.9539 0.0 2.67978 -77.3399 -8.55273 0.0 90.8182 0.0 27.1461 21.72818 -1.24631 0.0 -30.4177 0.0 
  2.9712600708007812 9.8343701171875 1.0606199645996093 -0.815256 34.6532 -358.892 9.48321 35.0809 -6.15239 -10.0028 27.8779 -1.04496 3.21624 46.5114 -25.1029 53.0289 -48.4817 62.343 -100.1006 -3.31312 4.57688 -24.9201 9.39375 30.426 0.0 58.257 0.0 31.8135 -4.31471 14.6064 0.0 0.0 0.0 0.0 0.0 0.0 107.65 -2.04231 -4.57633 35.6909 6.14976 -41.2324 0.0 59.884 0.0 -30.2281 -14.8989 -0.178324 0.0 0.0 0.0 0.0 0.0 0.0 -68.8951 -88.8286 -68.2835 0.0 127.419 0.0 -6.60932 22.824581 -3.90776 0.0 -36.2183 0.0 0.505228 -78.8395 -10.5731 0.0 93.6791 0.0 27.476 21.92957 -0.653529 0.0 -30.3583 0.0 
  2.9708099365234375 9.836929931640626 1.0603500366210938 -0.801528 34.7275 -359.057 9.31303 35.2164 -6.09846 -9.89773 28.2534 -1.10906 2.95778 46.359 -24.7806 53.2224 -48.5733 62.5403 -100.0485 -3.18031 4.66049 -24.8143 9.60149 30.8408 0.0 58.5879 0.0 30.7726 -4.41709 15.5344 0.0 0.0 0.0 0.0 0.0 0.0 107.435104 -1.97281 -4.48751 35.639 6.41863 -41.5655 0.0 60.0592 0.0 -30.4956 -15.28 0.00506166 0.0 0.0 0.0 0.0 0.0 0.0 -67.669 -88.9226 -67.0279 0.0 127.398 0.0 -6.47863 22.763851 -3.81703 0.0 -36.1423 0.0 0.224715 -80.086 -11.0659 0.0 96.1138 0.0 28.0005 22.34886 -0.257722 0.0 -30.3861 0.0 
